<svg width="695" height="472" xmlns="http://www.w3.org/2000/svg">

 <g>
  <title>background</title>
  <rect fill="none" id="canvas_background" height="474" width="697" y="-1" x="-1"/>
 </g>
 <g>
  <title>Layer 1</title>
  <g id="svg_32">
   <path id="svg_13" fill="#e6e6e6" d="m585.5,465.866278l-476,0a7.5082,7.5082 0 0 1 -7.5,-7.5l0,-207a7.5082,7.5082 0 0 1 7.5,-7.5l476,0a7.5082,7.5082 0 0 1 7.5,7.5l0,207a7.5082,7.5082 0 0 1 -7.5,7.5zm-476,-219a4.50492,4.50492 0 0 0 -4.5,4.5l0,207a4.50491,4.50491 0 0 0 4.5,4.5l476,0a4.50491,4.50491 0 0 0 4.5,-4.5l0,-207a4.50492,4.50492 0 0 0 -4.5,-4.5l-476,0z"/>
   <path id="svg_14" fill="#e6e6e6" d="m129,269.366278a4.5,4.5 0 0 0 0,9l63,0a4.5,4.5 0 0 0 0,-9l-63,0z"/>
   <path id="svg_15" fill="#e6e6e6" d="m560.29035,300.661428l0,83.44957l-424.83077,0l0,-43.93766c2.94182,-1.88912 5.90143,-3.76937 8.88768,-5.58753c12.75379,-7.80481 26.40529,-15.10408 41.28325,-17.80921a62.31953,62.31953 0 0 1 21.31262,-0.26606c7.46567,1.23282 14.61134,3.80489 21.68594,6.38578c6.9768,2.55431 13.9714,5.18841 21.2682,6.66959a62.2716,62.2716 0 0 0 21.5704,0.4257c13.66035,-2.04876 26.49415,-7.53875 39.27457,-12.50543c12.86049,-4.99332 26.112,-9.7117 40.03011,-10.33255c13.74031,-0.62085 27.31181,2.62528 40.35,6.65184c26.58306,8.20394 53.726,20.37239 81.87329,12.02652c28.58273,-8.46112 54.87248,-32.8867 86.54811,-25.64059a1.19244,1.19244 0 0 1 0.7466,0.47003z"/>
   <path id="svg_16" fill="#6777ef" d="m560.29035,302.115998a1.28259,1.28259 0 0 1 -1.45455,0.63855a47.36842,47.36842 0 0 0 -11.5121,-1.18843c-31.15722,0.54988 -55.11271,25.63172 -85.57811,29.38339c-27.46769,3.37913 -53.32114,-9.97776 -79.148,-16.95775c-13.419,-3.62749 -27.25483,-5.55207 -41.06406,-3.08649c-13.70274,2.439 -26.563,8.0443 -39.4764,13.01992c-12.43452,4.78929 -25.35683,9.2416 -38.82014,9.46333c-14.80256,0.24831 -28.13287,-5.85365 -41.86225,-10.50106c-7.13963,-2.42125 -14.46553,-4.337 -22.03086,-4.52323a66.64492,66.64492 0 0 0 -21.71164,3.36138c-14.58971,4.63858 -27.7337,12.90455 -40.53188,21.11737a1.13679,1.13679 0 0 1 -0.75385,0.204a1.37378,1.37378 0 0 1 -0.58534,-2.50109l0.58534,-0.37255c2.93567,-1.88912 5.8891,-3.76937 8.86911,-5.58753c12.72717,-7.80481 26.35017,-15.10408 41.19707,-17.80921a62.06159,62.06159 0 0 1 21.26813,-0.26606c7.45008,1.23282 14.58083,3.80489 21.64067,6.38578c6.96223,2.55431 13.94222,5.18841 21.22379,6.66959a62.014,62.014 0 0 0 21.52537,0.4257c13.63183,-2.04876 26.43884,-7.53875 39.19258,-12.50543c12.83364,-4.99332 26.05747,-9.7117 39.94654,-10.33255c13.71162,-0.62085 27.25479,2.62528 40.26577,6.65184c26.52756,8.20394 53.61383,20.37239 81.70236,12.02652c28.52306,-8.46112 54.75793,-32.8867 86.36743,-25.64059a1.1897,1.1897 0 0 1 0.745,0.47a1.36658,1.36658 0 0 1 0.00002,1.4546z"/>
   <circle id="svg_17" fill="#6777ef" r="6.20838" cy="317.5926" cx="193.99576"/>
   <circle id="svg_18" fill="#6777ef" r="6.20838" cy="309.61039" cx="350.97916"/>
   <circle id="svg_19" fill="#6777ef" r="6.20838" cy="301.62818" cx="542.55211"/>
   <path id="svg_20" fill="#e6e6e6" d="m190.5,419.366278a4.5,4.5 0 0 0 0,9l63,0a4.5,4.5 0 0 0 0,-9l-63,0z"/>
   <circle id="svg_21" fill="#6777ef" r="17" cy="423.36628" cx="150"/>
   <path id="svg_22" fill="#e6e6e6" d="m342.5,419.366278a4.5,4.5 0 0 0 0,9l63,0a4.5,4.5 0 0 0 0,-9l-63,0z"/>
   <circle id="svg_23" fill="#6777ef" r="17" cy="423.36628" cx="302"/>
   <path id="svg_24" fill="#e6e6e6" d="m494.5,419.366278a4.5,4.5 0 0 0 0,9l63,0a4.5,4.5 0 0 0 0,-9l-63,0z"/>
   <circle id="svg_25" fill="#6777ef" r="17" cy="423.36628" cx="454"/>
   <path fill="#e6e6e6" d="m552.919,187.975698l-234.838,0c-4.578,0 -8.288,-2.643 -8.293,-5.9l0,-51.042c0.005,-3.257 3.715,-5.9 8.293,-5.9l234.838,0c4.578,0 8.288,2.643 8.293,5.9l0,51.041c-0.004,3.25701 -3.715,5.897 -8.293,5.901zm-234.838,-60.484c-2.747,0 -4.973,1.586 -4.976,3.54l0,51.041c0,1.954 2.229,3.538 4.976,3.54l234.838,0c2.747,0 4.973,-1.586 4.976,-3.54l0,-51.039c0,-1.954 -2.229,-3.538 -4.976,-3.54l-234.838,-0.002z" id="e1cfef3e-7788-4f0f-b252-d185c9336b04"/>
   <path id="svg_26" fill="#6777ef" d="m371.17905,154.140868a5.00589,5.00589 0 0 0 -5,5l0,35a5.00589,5.00589 0 0 0 5,5l179,0a5.00589,5.00589 0 0 0 5,-5l0,-35a5.00588,5.00588 0 0 0 -5,-5l-179,0z"/>
   <circle id="svg_27" fill="#fff" r="11" cy="177.14086" cx="396.17905"/>
   <path id="svg_28" fill="#fff" d="m446.31094,172.366278a4.5,4.5 0 0 0 0,9l63,0a4.5,4.5 0 0 0 0,-9l-63,0z"/>
   <path fill="#e6e6e6" d="m376.919,68.975698l-234.838,0c-4.578,0 -8.288,-2.643 -8.293,-5.9l0,-51.042c0.005,-3.257 3.715,-5.9 8.293,-5.9l234.838,0c4.578,0 8.288,2.643 8.293,5.9l0,51.041c-0.004,3.25701 -3.715,5.897 -8.293,5.901zm-234.838,-60.484c-2.747,0 -4.973,1.586 -4.976,3.54l0,51.041c0,1.954 2.229,3.538 4.976,3.54l234.838,0c2.747,0 4.973,-1.586 4.976,-3.54l0,-51.039c0,-1.954 -2.229,-3.538 -4.976,-3.54l-234.838,-0.002z" id="b00e8b21-64f0-4b6c-8490-a93637cb24e1"/>
   <path id="svg_29" fill="#6777ef" d="m195.17905,35.140868a5.00589,5.00589 0 0 0 -5,5l0,35a5.00589,5.00589 0 0 0 5,5l179,0a5.00589,5.00589 0 0 0 5,-5l0,-35a5.00588,5.00588 0 0 0 -5,-5l-179,0z"/>
   <circle id="svg_30" fill="#fff" r="11" cy="58.14086" cx="220.17905"/>
   <path id="svg_31" fill="#fff" d="m270.31094,53.366278a4.5,4.5 0 0 0 0,9l63,0a4.5,4.5 0 0 0 0,-9l-63,0z"/>
  </g>
 </g>
</svg>